<svg height="512pt" viewBox="0 -68 512 512" width="512pt" xmlns="http://www.w3.org/2000/svg"><path d="m459 119.324219h39.5c3.3125 0 6 2.6875 6 6v54.269531c0 3.3125-2.6875 6-6 6h-39.5zm0 0" fill="#ffaf10"/><path d="m355.398438 85.160156v-46.808594c0-3.316406 2.6875-6 6-6h54.265624c3.316407 0 6 2.683594 6 6v46.8125zm0 0" fill="#717b99"/><path d="m415.664062 32.351562h-24c3.316407 0 6 2.683594 6 6v46.8125h24v-46.8125c0-3.316406-2.683593-6-6-6zm0 0" fill="#5c647d"/><path d="m73.765625 39.660156v-26.160156c0-3.3125 2.683594-6 6-6h54.269531c3.3125 0 6 2.6875 6 6v26.164062zm0 0" fill="#ffaf10"/><path d="m57.199219 74.160156v-35.808594c0-3.316406 2.6875-6 6-6h87.398437c3.316406 0 6 2.683594 6 6v35.8125zm0 0" fill="#c3ddf4"/><path d="m150.597656 32.351562h-20c3.316406 0 6 2.683594 6 6v35.8125h20v-35.8125c0-3.316406-2.683594-6-6-6zm0 0" fill="#9cc2ed"/><path d="m471.367188 98.617188c0-18.300782-14.832032-33.132813-33.132813-33.132813h-397.601563c-18.296874 0-33.132812 14.832031-33.132812 33.132813v236.078124c0 18.296876 14.835938 33.132813 33.132812 33.132813h397.601563c18.300781 0 33.132813-14.835937 33.132813-33.132813zm0 0" fill="#393e4d"/><path d="m438.234375 65.484375h-24c18.300781 0 33.132813 14.832031 33.132813 33.132813v236.078124c0 18.296876-14.835938 33.132813-33.132813 33.132813h24c18.300781 0 33.132813-14.835937 33.132813-33.132813v-236.078124c0-18.300782-14.832032-33.132813-33.132813-33.132813zm0 0" fill="#313542"/><path d="m471.367188 156.601562h-463.867188v132.53125h463.867188zm0 0" fill="#717b99"/><path d="m100.898438 131.75h-54.265626c-3.316406 0-6-2.6875-6-6v-21.132812c0-3.316407 2.683594-6 6-6h54.265626c3.316406 0 6 2.683593 6 6v21.132812c0 3.3125-2.683594 6-6 6zm0 0" fill="#fff"/><path d="m355.398438 214.585938c0 64.042968-51.917969 115.964843-115.964844 115.964843s-115.96875-51.921875-115.96875-115.964843c0-64.046876 51.921875-115.96875 115.96875-115.96875s115.964844 51.921874 115.964844 115.96875zm0 0" fill="#c3ddf4"/><path d="m239.433594 98.617188c-4.007813 0-7.964844.203124-11.867188.601562 58.46875 5.941406 104.097656 55.324219 104.097656 115.367188 0 60.039062-45.628906 109.421874-104.097656 115.363281 3.902344.398437 7.859375.601562 11.867188.601562 64.046875 0 115.964844-51.917969 115.964844-115.964843 0-64.050782-51.917969-115.96875-115.964844-115.96875zm0 0" fill="#9cc2ed"/><path d="m322.265625 214.585938c0 45.746093-37.085937 82.832031-82.832031 82.832031-45.75 0-82.835938-37.085938-82.835938-82.832031 0-45.75 37.085938-82.835938 82.835938-82.835938 45.746094 0 82.832031 37.085938 82.832031 82.835938zm0 0" fill="#69cdff"/><path d="m239.433594 131.75c-4.078125 0-8.082032.304688-12 .875 40.058594 5.816406 70.832031 40.285156 70.832031 81.960938 0 41.671874-30.773437 76.140624-70.832031 81.957031 3.917968.570312 7.921875.875 12 .875 45.746094 0 82.832031-37.085938 82.832031-82.832031 0-45.75-37.085937-82.835938-82.832031-82.835938zm0 0" fill="#5fb4f5"/><path d="m421.660156 247.71875c0 9.148438-7.414062 16.5625-16.5625 16.5625-9.148437 0-16.566406-7.414062-16.566406-16.5625s7.417969-16.5625 16.566406-16.5625c9.148438 0 16.5625 7.414062 16.5625 16.5625zm0 0" fill="#ffaf10"/><path d="m447.367188 156.601562h24v132.53125h-24zm0 0" fill="#5c647d"/><path d="m100.898438 98.617188h-24c3.316406 0 6 2.6875 6 6v21.132812c0 3.3125-2.683594 6-6 6h24c3.316406 0 6-2.6875 6-6v-21.132812c0-3.3125-2.683594-6-6-6zm0 0" fill="#dae9f7"/><path d="m498.5 119.324219h-24c3.3125 0 6 2.6875 6 6v54.269531c0 3.3125-2.6875 6-6 6h24c3.3125 0 6-2.6875 6-6v-54.269531c0-3.3125-2.6875-6-6-6zm0 0" fill="#ff890a"/><path d="m504.5 111.828125h-25.632812v-13.210937c0-22.40625-18.226563-40.632813-40.632813-40.632813h-9.070313v-25.632813c0-4.140624-3.355468-7.5-7.5-7.5h-66.265624c-4.140626 0-7.5 3.359376-7.5 7.5v25.632813h-34.699219v-9.066406c0-4.144531-3.355469-7.5-7.5-7.5-4.140625 0-7.5 3.355469-7.5 7.5v9.066406h-134.101563v-25.632813c0-4.144531-3.355468-7.5-7.5-7.5h-9.0625v-17.351562c0-4.140625-3.359375-7.5-7.5-7.5h-66.269531c-4.144531 0-7.5 3.359375-7.5 7.5v17.351562h-9.066406c-4.140625 0-7.5 3.359376-7.5 7.5v25.632813h-9.066407c-22.40625 0-40.632812 18.226563-40.632812 40.632813v236.078124c0 22.402344 18.226562 40.628907 40.632812 40.628907h397.601563c22.40625 0 40.632813-18.226563 40.632813-40.628907v-141.601562h25.632812c4.144531 0 7.5-3.359375 7.5-7.5v-66.269531c0-4.140625-3.355469-7.496094-7.5-7.496094zm-489.5 52.273437h111.765625c-6.9375 15.417969-10.800781 32.507813-10.800781 50.484376 0 24.699218 7.296875 47.726562 19.84375 67.046874h-120.808594zm115.964844 50.484376c0-59.8125 48.65625-108.46875 108.46875-108.46875 59.808594 0 108.464844 48.65625 108.464844 108.46875 0 59.808593-48.65625 108.464843-108.464844 108.464843-59.8125 0-108.46875-48.660156-108.46875-108.464843zm231.933594 0c0-17.976563-3.863282-35.066407-10.800782-50.484376h111.769532v21.472657.019531.015625 96.023437h-120.808594c12.542968-19.320312 19.839844-42.347656 19.839844-67.046874zm0-174.734376h51.265624v18.132813h-51.265624zm-213.800782 18.132813h-9.847656v-18.132813h.773438.011718.011719 9.050781zm-16.5625-33.132813h-.746094c-.011718 0-.027343-.003906-.039062-.003906s-.027344.003906-.039062.003906h-9.027344v-9.851562h9.851562zm-51.269531-9.851562h26.417969v9.851562h-26.417969zm-16.566406 24.851562h59.550781v18.132813h-59.550781zm-24.066407 33.132813h265.058594.007813.011719 115.945312.007812.011719 16.558594c14.136719 0 25.632813 11.496094 25.632813 25.632813v50.484374h-119.8125c-21.859376-34.800781-60.582032-57.984374-104.621094-57.984374-44.042969 0-82.765625 23.183593-104.625 57.984374h-119.808594v-50.484374c0-14.136719 11.5-25.632813 25.632812-25.632813zm397.601563 287.339844h-274.136719v-13.210938c0-4.140625-3.355468-7.5-7.5-7.5-4.140625 0-7.5 3.359375-7.5 7.5v13.210938h-34.699218v-13.210938c0-4.140625-3.359376-7.5-7.5-7.5-4.140626 0-7.5 3.359375-7.5 7.5v13.210938h-34.699219v-13.210938c0-4.140625-3.359375-7.5-7.5-7.5-4.144531 0-7.5 3.359375-7.5 7.5v13.210938h-9.066407c-14.132812 0-25.632812-11.496094-25.632812-25.628907v-38.0625h132.257812c22.632813 25.394532 55.5625 41.417969 92.175782 41.417969 36.609375 0 69.542968-16.023437 92.171875-41.417969h132.261719v38.0625c0 14.132813-11.5 25.628907-25.632813 25.628907zm58.765625-182.230469h-18.132812v-51.269531h18.132812zm0 0"/><path d="m40.632812 139.25h66.265626c4.144531 0 7.5-3.359375 7.5-7.5v-33.132812c0-4.140626-3.355469-7.5-7.5-7.5h-66.265626c-4.144531 0-7.5 3.359374-7.5 7.5v33.132812c0 4.144531 3.355469 7.5 7.5 7.5zm7.5-33.132812h51.265626v18.132812h-51.265626zm0 0"/><path d="m239.433594 304.917969c49.808594 0 90.335937-40.523438 90.335937-90.332031 0-49.8125-40.527343-90.335938-90.335937-90.335938-20.390625 0-39.636719 6.628906-55.65625 19.175781-3.261719 2.554688-3.832032 7.265625-1.28125 10.527344 2.554687 3.261719 7.269531 3.835937 10.53125 1.28125 13.351562-10.457031 29.398437-15.984375 46.40625-15.984375 41.539062 0 75.335937 33.796875 75.335937 75.335938 0 41.539062-33.796875 75.335937-75.335937 75.335937-41.539063 0-75.335938-33.796875-75.335938-75.335937 0-13.816407 3.769532-27.328126 10.90625-39.066407 2.152344-3.539062 1.027344-8.152343-2.515625-10.304687-3.539062-2.152344-8.152343-1.023438-10.300781 2.515625-8.5625 14.085937-13.089844 30.289062-13.089844 46.855469 0 49.808593 40.523438 90.332031 90.335938 90.332031zm0 0"/><path d="m405.097656 223.65625c-13.269531 0-24.0625 10.792969-24.0625 24.0625s10.792969 24.0625 24.0625 24.0625c13.269532 0 24.0625-10.792969 24.0625-24.0625s-10.792968-24.0625-24.0625-24.0625zm0 33.128906c-4.996094 0-9.0625-4.066406-9.0625-9.066406 0-4.996094 4.066406-9.0625 9.0625-9.0625 5 0 9.0625 4.066406 9.0625 9.0625 0 5-4.0625 9.066406-9.0625 9.066406zm0 0"/><path d="m388.53125 106.117188h33.132812c4.144532 0 7.5-3.359376 7.5-7.5 0-4.140626-3.355468-7.5-7.5-7.5h-33.132812c-4.140625 0-7.5 3.359374-7.5 7.5 0 4.140624 3.359375 7.5 7.5 7.5zm0 0"/></svg>