<svg width="327" height="327.688" xmlns="http://www.w3.org/2000/svg" xmlns:xlink="http://www.w3.org/1999/xlink">
 <defs>
  <linearGradient id="a">
   <stop stop-color="#00efd1" offset="0"/>
   <stop stop-color="#00acea" offset="1"/>
  </linearGradient>
  <linearGradient y2="1.235043" y1="-0.239524" xlink:href="#a" x2="0.499984" x1="0.499984" id="b"/>
  <linearGradient y2="2.284641" y1="-1.379673" xlink:href="#a" x2="0.485038" x1="0.485038" id="c"/>
 </defs>
 <g>
  <title>background</title>
  <rect fill="none" id="canvas_background" height="402" width="582" y="-1" x="-1"/>
 </g>
 <g>
  <title>Layer 1</title>
  <path id="svg_1" fill="url(#b)" d="m164.02734,0c-90.2539,0 -163.68359,73.58203 -163.68359,163.84766s73.42188,163.83984 163.68359,163.83984l0.01172,0c90.25391,0 163.6836,-73.58203 163.6836,-163.84766s-73.4336,-163.83984 -163.69532,-163.83984zm0.00391,307.6875l-0.00391,0c-79.22656,0 -143.68359,-64.61328 -143.68359,-143.84766c0,-79.23828 64.45703,-143.76171 143.69531,-143.76171c79.23828,0 143.67578,64.57031 143.67578,143.80859s-64.45312,143.80078 -143.68359,143.80078zm0,0"/>
  <g id="svg_2" fill="url(#c)">
   <!--
	<path  d="m235.027344 153.6875h-143c-5.523438 0-10 4.476562-10 10s4.476562 10 10 10h143c5.523437 0 10-4.476562 10-10s-4.476563-10-10-10zm0 0"/> -->
   <path stroke="null" id="svg_3" d="m286.75372,170.632896l-165.95277,0c-6.40999,0 -11.60509,4.47656 -11.60509,10s5.1951,10 11.60509,10l165.95277,0c6.41,0 11.60509,-4.47656 11.60509,-10s-5.19509,-10 -11.60509,-10z" transform="rotate(45 202.52734374999997,129.3829040527344) "/>
   <path stroke="null" id="svg_5" d="m248.75372,154.366508l-165.95277,0c-6.40999,0 -11.60509,4.47656 -11.60509,10s5.1951,10 11.60509,10l165.95277,0c6.41,0 11.60509,-4.47656 11.60509,-10s-5.19509,-10 -11.60509,-10z" transform="rotate(137 165.77734375000003,164.3665008544922) "/>
  </g>
 </g>
</svg>